<svg xmlns="http://www.w3.org/2000/svg" viewBox="0 0 64 64">
  <defs>
    <linearGradient id="bg" x1="0" y1="0" x2="1" y2="1">
      <stop offset="0" stop-color="#1e1e2e"/>
      <stop offset="1" stop-color="#11111b"/>
    </linearGradient>
    <linearGradient id="glass" x1="0" y1="0" x2="1" y2="1">
      <stop offset="0" stop-color="#cba6f7" stop-opacity="0.85"/>
      <stop offset="1" stop-color="#89b4fa" stop-opacity="0.55"/>
    </linearGradient>
    <linearGradient id="sheen" x1="0" y1="0" x2="0" y2="1">
      <stop offset="0" stop-color="#ffffff" stop-opacity="0.55"/>
      <stop offset="0.5" stop-color="#ffffff" stop-opacity="0.05"/>
      <stop offset="1" stop-color="#ffffff" stop-opacity="0"/>
    </linearGradient>
    <filter id="blur" x="-20%" y="-20%" width="140%" height="140%">
      <feGaussianBlur stdDeviation="2"/>
    </filter>
  </defs>
  <rect width="64" height="64" rx="14" fill="url(#bg)"/>
  <circle cx="20" cy="44" r="16" fill="#f38ba8" opacity="0.55" filter="url(#blur)"/>
  <circle cx="46" cy="22" r="14" fill="#89dceb" opacity="0.45" filter="url(#blur)"/>
  <path d="M14 44 C 14 26, 26 14, 44 14 L 50 14 C 50 32, 38 44, 20 44 Z"
        fill="url(#glass)" stroke="#cba6f7" stroke-opacity="0.7" stroke-width="1"/>
  <path d="M14 44 C 14 26, 26 14, 44 14 L 50 14 C 50 22, 46 28, 40 30 C 26 22, 18 30, 14 44 Z"
        fill="url(#sheen)" opacity="0.6"/>
  <circle cx="42" cy="24" r="3" fill="#f5e0dc" opacity="0.9"/>
</svg>
